<svg width="302" height="302" viewBox="0 0 302 302" fill="none" xmlns="http://www.w3.org/2000/svg">
<mask id="path-1-inside-1_409_5130" fill="white">
<path d="M301.34 150.84C301.34 131.076 297.447 111.505 289.884 93.246C282.32 74.9865 271.235 58.3955 257.259 44.4203L150.84 150.84H301.34Z"/>
</mask>
<path d="M301.34 150.84C301.34 131.076 297.447 111.505 289.884 93.246C282.32 74.9865 271.235 58.3955 257.259 44.4203L150.84 150.84H301.34Z" fill="#E4E9DF" stroke="#EFEFEF" stroke-width="2" mask="url(#path-1-inside-1_409_5130)"/>
<mask id="path-2-inside-2_409_5130" fill="white">
<path d="M257.26 44.4203C243.284 30.4451 226.693 19.3593 208.434 11.796C190.174 4.23264 170.604 0.339846 150.84 0.339846L150.84 150.84L257.26 44.4203Z"/>
</mask>
<path d="M257.26 44.4203C243.284 30.4451 226.693 19.3593 208.434 11.796C190.174 4.23264 170.604 0.339846 150.84 0.339846L150.84 150.84L257.26 44.4203Z" fill="#E4E6E3" stroke="#EFEFEF" stroke-width="2" mask="url(#path-2-inside-2_409_5130)"/>
<mask id="path-3-inside-3_409_5130" fill="white">
<path d="M150.84 0.339837C131.076 0.339838 111.505 4.23264 93.246 11.796C74.9865 19.3593 58.3955 30.4451 44.4203 44.4203L150.84 150.84L150.84 0.339837Z"/>
</mask>
<path d="M150.84 0.339837C131.076 0.339838 111.505 4.23264 93.246 11.796C74.9865 19.3593 58.3955 30.4451 44.4203 44.4203L150.84 150.84L150.84 0.339837Z" fill="#EBE7E3" stroke="#EFEFEF" stroke-width="2" mask="url(#path-3-inside-3_409_5130)"/>
<mask id="path-4-inside-4_409_5130" fill="white">
<path d="M44.4203 44.42C30.4451 58.3952 19.3593 74.9862 11.796 93.2457C4.23264 111.505 0.339846 131.076 0.339846 150.84L150.84 150.84L44.4203 44.42Z"/>
</mask>
<path d="M44.4203 44.42C30.4451 58.3952 19.3593 74.9862 11.796 93.2457C4.23264 111.505 0.339846 131.076 0.339846 150.84L150.84 150.84L44.4203 44.42Z" fill="#EAE4E2" stroke="#EFEFEF" stroke-width="2" mask="url(#path-4-inside-4_409_5130)"/>
<mask id="path-5-inside-5_409_5130" fill="white">
<path d="M0.339831 150.84C0.339832 170.604 4.23263 190.174 11.796 208.434C19.3593 226.693 30.4451 243.284 44.4203 257.259L150.84 150.84L0.339831 150.84Z"/>
</mask>
<path d="M0.339831 150.84C0.339832 170.604 4.23263 190.174 11.796 208.434C19.3593 226.693 30.4451 243.284 44.4203 257.259L150.84 150.84L0.339831 150.84Z" fill="#E8E6E9" stroke="#EFEFEF" stroke-width="2" mask="url(#path-5-inside-5_409_5130)"/>
<mask id="path-6-inside-6_409_5130" fill="white">
<path d="M150.84 301.34C170.604 301.34 190.174 297.447 208.434 289.884C226.693 282.32 243.284 271.235 257.259 257.259L150.84 150.84L150.84 301.34Z"/>
</mask>
<path d="M150.84 301.34C170.604 301.34 190.174 297.447 208.434 289.884C226.693 282.32 243.284 271.235 257.259 257.259L150.84 150.84L150.84 301.34Z" fill="#E3E9E8" stroke="#EFEFEF" stroke-width="2" mask="url(#path-6-inside-6_409_5130)"/>
<mask id="path-7-inside-7_409_5130" fill="white">
<path d="M257.259 257.26C271.235 243.284 282.32 226.693 289.884 208.434C297.447 190.174 301.34 170.604 301.34 150.84L150.84 150.84L257.259 257.26Z"/>
</mask>
<path d="M257.259 257.26C271.235 243.284 282.32 226.693 289.884 208.434C297.447 190.174 301.34 170.604 301.34 150.84L150.84 150.84L257.259 257.26Z" fill="#E1E9E2" stroke="#EFEFEF" stroke-width="2" mask="url(#path-7-inside-7_409_5130)"/>
<mask id="path-8-inside-8_409_5130" fill="white">
<path d="M44.42 257.259C58.3952 271.235 74.9862 282.32 93.2457 289.884C111.505 297.447 131.076 301.34 150.84 301.34L150.84 150.84L44.42 257.259Z"/>
</mask>
<path d="M44.42 257.259C58.3952 271.235 74.9862 282.32 93.2457 289.884C111.505 297.447 131.076 301.34 150.84 301.34L150.84 150.84L44.42 257.259Z" fill="#E4E8E8" stroke="#EFEFEF" stroke-width="2" mask="url(#path-8-inside-8_409_5130)"/>
</svg>
